<svg xml:space="preserve" style="height: 100%; width: 100%; background:transparent;" viewBox="10 10 100 100" y="0px" x="0px" xmlns:xlink="http://www.w3.org/1999/xlink" xmlns="http://www.w3.org/2000/svg" id="Layer_1" version="1.1" width="192px" height="192px"><g class="ldl-scale" style="transform-origin: 50% 50%; transform: rotate(0deg) scale(0.84, 0.84);"><g class="ldl-ani"><style type="text/css">.st0{fill:none}.st1{fill:#f7b26a}.st2{fill:#f47e5f}</style><g class="ldl-layer"><g class="ldl-ani" style="transform-origin: 64px 64px; transform: scale(0.91); animation: 4.34783s linear -2.3913s infinite normal forwards running breath-2985f9ee-b3f2-4c28-aa97-809a6e779c3f;"><path d="z" class="st0"></path></g></g><g class="ldl-layer"><g class="ldl-ani"><g><g class="ldl-layer"><g class="ldl-ani" style="transform-origin: 64px 64px; transform: scale(0.91); animation: 4.34783s linear -2.6087s infinite normal forwards running breath-2985f9ee-b3f2-4c28-aa97-809a6e779c3f;"><path d="M65.9,27c0,0,1.7,3.5,3.3,6.1c0.3,0.4,0,0.8-0.4,0.8c-4.6,0.5-10.5,1-14.3-1.9c-9.6-8.1-5-13.6-14.7-20.4 c-0.1-0.1-0.1-0.5,0.3-0.5c5,0,21.9,0,26.8,3.5c3.5,2.4,5.5,8.3,6.7,12.8c0.1,0.4-0.3,0.8-0.6,0.6C69.8,27.4,65.9,27,65.9,27z" class="st1" style="fill: rgb(247, 178, 106);"></path></g></g><g class="ldl-layer"><g class="ldl-ani" style="transform-origin: 64px 64px; transform: scale(0.91); animation: 4.34783s linear -2.82609s infinite normal forwards running breath-2985f9ee-b3f2-4c28-aa97-809a6e779c3f;"><path d="M28,55.2c0.1-0.4-0.3-0.8-0.6-0.6c-4.5,1.2-10.5,3.3-12.8,6.7c-3.5,4.9-3.5,21.8-3.5,26.8 c0,0.4,0.4,0.4,0.6,0.1c6.8-9.7,12.3-5,20.4-14.7c2.9-4,2.4-9.7,1.9-14.3c0-0.4-0.5-0.5-0.8-0.4c-2.7,1.8-6.1,3.3-6.1,3.3 S27.4,58.2,28,55.2z" class="st1" style="fill: rgb(247, 178, 106);"></path></g></g><g class="ldl-layer"><g class="ldl-ani" style="transform-origin: 64px 64px; transform: scale(0.91); animation: 4.34783s linear -3.04348s infinite normal forwards running breath-2985f9ee-b3f2-4c28-aa97-809a6e779c3f;"><path d="M55.2,100c-0.4-0.1-0.8,0.3-0.6,0.6c1.2,4.5,3.3,10.5,6.7,12.8c4.9,3.5,21.8,3.5,26.8,3.5 c0.3,0,0.4-0.4,0.1-0.6c-9.7-6.8-5-12.3-14.7-20.4c-4-2.9-9.7-2.4-14.3-1.9c-0.4,0-0.5,0.5-0.4,0.8c1.8,2.7,3.3,6.1,3.3,6.1 S58.2,100.6,55.2,100z" class="st1" style="fill: rgb(247, 178, 106);"></path></g></g><g class="ldl-layer"><g class="ldl-ani" style="transform-origin: 64px 64px; transform: scale(0.91); animation: 4.34783s linear -3.26087s infinite normal forwards running breath-2985f9ee-b3f2-4c28-aa97-809a6e779c3f;"><path d="M100,72.8c-0.1,0.4,0.3,0.8,0.6,0.6c4.5-1.2,10.5-3.3,12.8-6.7c3.5-4.9,3.5-21.8,3.5-26.8 c0-0.3-0.4-0.4-0.6-0.1c-6.8,9.7-12.3,5-20.4,14.7c-2.9,4-2.4,9.7-1.9,14.3c0,0.4,0.5,0.5,0.8,0.4c2.7-1.8,6.1-3.3,6.1-3.3 S100.6,69.8,100,72.8z" class="st1" style="fill: rgb(247, 178, 106);"></path></g></g></g></g></g><g class="ldl-layer"><g class="ldl-ani"><g><g class="ldl-layer"><g class="ldl-ani" style="transform-origin: 64px 64px; transform: scale(0.91); animation: 4.34783s linear -3.47826s infinite normal forwards running breath-2985f9ee-b3f2-4c28-aa97-809a6e779c3f;"><path d="M44.9,32c0.4-0.3,0.4-0.6,0-0.9c-4-2.4-9.7-5.1-13.8-4.4c-6,1.2-17.9,13.1-21.4,16.5c-0.3,0.3,0,0.6,0.3,0.5 c11.6-2,12.3,5.1,24.7,4c4.9-0.6,8.6-5.2,11.5-8.8c0.3-0.3,0.1-0.8-0.3-0.8c-3.1-0.6-6.8-1.9-6.8-1.9S42.2,33.7,44.9,32z" class="st2" style="fill: rgb(244, 126, 95);"></path></g></g><g class="ldl-layer"><g class="ldl-ani" style="transform-origin: 64px 64px; transform: scale(0.91); animation: 4.34783s linear -3.69565s infinite normal forwards running breath-2985f9ee-b3f2-4c28-aa97-809a6e779c3f;"><path d="M32.3,82.9c-0.3-0.4-0.6-0.4-0.9,0c-2.4,4-5.1,9.7-4.4,13.8c1,5.9,12.9,17.9,16.5,21.4c0.3,0.3,0.6,0,0.5-0.3 c-2-11.6,5.1-12.3,4-24.7c-0.6-4.9-5.2-8.6-8.8-11.5c-0.3-0.3-0.8-0.1-0.8,0.3c-0.6,3.1-1.9,6.8-1.9,6.8S33.9,85.6,32.3,82.9z" class="st2" style="fill: rgb(244, 126, 95);"></path></g></g><g class="ldl-layer"><g class="ldl-ani" style="transform-origin: 64px 64px; transform: scale(0.91); animation: 4.34783s linear -3.91304s infinite normal forwards running breath-2985f9ee-b3f2-4c28-aa97-809a6e779c3f;"><path d="M83.1,95.5c-0.4,0.3-0.4,0.6,0,0.9c4,2.4,9.7,5.1,13.8,4.4c5.9-1,17.9-12.9,21.4-16.5c0.3-0.3,0-0.6-0.3-0.5 c-11.6,2-12.3-5.1-24.7-4c-4.9,0.6-8.6,5.2-11.5,8.8c-0.3,0.3-0.1,0.8,0.3,0.8c3.1,0.6,6.8,1.9,6.8,1.9S85.8,93.9,83.1,95.5z" class="st2" style="fill: rgb(244, 126, 95);"></path></g></g><g class="ldl-layer"><g class="ldl-ani" style="transform-origin: 64px 64px; transform: scale(0.91); animation: 4.34783s linear -4.13043s infinite normal forwards running breath-2985f9ee-b3f2-4c28-aa97-809a6e779c3f;"><path d="M95.7,44.7c0.3,0.4,0.6,0.4,0.9,0c2.4-4,5.1-9.7,4.4-13.8c-1.2-6-13.1-17.9-16.5-21.4c-0.3-0.3-0.6,0-0.5,0.3 c2,11.6-5.1,12.3-4,24.7c0.6,4.9,5.2,8.6,8.8,11.5c0.3,0.3,0.8,0.1,0.8-0.3c0.6-3.1,1.9-6.8,1.9-6.8S94.1,42,95.7,44.7z" class="st2" style="fill: rgb(244, 126, 95);"></path></g></g></g></g></g><g class="ldl-layer"><g class="ldl-ani" style="transform-origin: 64px 64px; transform: scale(0.91); animation: 4.34783s linear -4.34783s infinite normal forwards running breath-2985f9ee-b3f2-4c28-aa97-809a6e779c3f;"><path d="z" class="st0"></path></g></g><metadata xmlns:d="https://loading.io/stock/">
<d:name>fire</d:name>
<d:tags>burn,flame,hot,flare,ring,wreath,leaf,fire,spinner</d:tags>
<d:license>by</d:license>
<d:slug>ntxr3f</d:slug>
</metadata></g></g></svg>