<?xml version="1.0" standalone="no"?><!DOCTYPE svg PUBLIC "-//W3C//DTD SVG 1.1//EN" "http://www.w3.org/Graphics/SVG/1.1/DTD/svg11.dtd"><svg t="1622538238255" class="icon" viewBox="0 0 1024 1024" version="1.1" xmlns="http://www.w3.org/2000/svg" p-id="5701" xmlns:xlink="http://www.w3.org/1999/xlink" width="200" height="200"><defs><style type="text/css"></style></defs><path d="M446.836364 90.763636v363.054546H195.490909c-34.909091 0-58.181818-39.563636-37.236364-69.818182l207.127273-318.836364c23.272727-34.909091 81.454545-18.618182 81.454546 25.6zM933.236364 456.145455H567.854545V202.472727c0-34.909091 39.563636-58.181818 69.818182-37.236363L956.509091 372.363636c37.236364 25.6 20.945455 83.781818-23.272727 83.781819zM565.527273 933.236364V567.854545h253.672727c34.909091 0 58.181818 39.563636 37.236364 69.818182l-207.127273 318.836364c-25.6 37.236364-83.781818 20.945455-83.781818-23.272727zM90.763636 567.854545h363.054546v253.672728c0 34.909091-39.563636 58.181818-69.818182 37.236363L67.490909 651.636364c-37.236364-25.6-20.945455-83.781818 23.272727-83.781819z" fill="#2486b9" p-id="5702"></path></svg>